<?xml version="1.0" encoding="UTF-8"?>
<svg id="Art" xmlns="http://www.w3.org/2000/svg" version="1.1" viewBox="0 0 939.6 130.4">
  <!-- Generator: Adobe Illustrator 29.1.0, SVG Export Plug-In . SVG Version: 2.1.0 Build 142)  -->
  <defs>
    <style>
      .st0 {
        fill: #fc7d40;
      }

      .st1 {
        fill: #002e66;
      }

      .st2 {
        fill: #58a2d5;
      }

      .st3 {
        fill: #002e65;
      }
    </style>
  </defs>
  <g>
    <path class="st1" d="M478.2,55h0c0-11,8.2-20,19.9-20s11.4,2.5,15.1,6l-4.3,5c-3.1-2.9-6.4-4.8-10.8-4.8-7.3,0-12.7,6-12.7,13.6h0c0,7.6,5.3,13.8,12.7,13.8s7.8-1.9,11-5l4.3,4.4c-4,4.2-8.4,6.8-15.6,6.8-11.2,0-19.6-8.7-19.6-19.8h0Z"/>
    <path class="st1" d="M516.6,59.8h0c0-8.4,6.6-15.3,15.5-15.3s15.5,6.8,15.5,15.1h0c0,8.4-6.6,15.2-15.6,15.2s-15.4-6.8-15.4-15ZM540.9,59.8h0c0-5.2-3.7-9.5-8.9-9.5s-8.7,4.2-8.7,9.2h0c0,5.2,3.7,9.4,8.8,9.4s8.8-4.2,8.8-9.2Z"/>
    <path class="st1" d="M553.3,45.2h6.7v4.4c1.9-2.6,4.4-5,8.8-5s7.2,2,8.7,5.1c2.3-3.1,5.4-5.1,9.8-5.1,6.3,0,10.2,4,10.2,11.1v18.5h-6.7v-16.5c0-4.6-2.1-7.1-5.9-7.1s-6.2,2.5-6.2,7.2v16.4h-6.7v-16.5c0-4.5-2.2-7-5.9-7s-6.2,2.8-6.2,7.2v16.4h-6.7v-29h0Z"/>
    <path class="st1" d="M604.8,45.2h6.7v4.4c1.9-2.6,4.4-5,8.8-5s7.2,2,8.7,5.1c2.3-3.1,5.4-5.1,9.8-5.1,6.3,0,10.2,4,10.2,11.1v18.5h-6.7v-16.5c0-4.6-2.1-7.1-5.9-7.1s-6.2,2.5-6.2,7.2v16.4h-6.7v-16.5c0-4.5-2.2-7-5.9-7s-6.2,2.8-6.2,7.2v16.4h-6.7v-29h0Z"/>
    <path class="st1" d="M656.2,34.4h7.2v6.3h-7.2v-6.3ZM656.4,45.2h6.7v29h-6.7v-29Z"/>
    <path class="st1" d="M668.2,70.4l3-4.5c3.2,2.4,6.5,3.6,9.5,3.6s4.5-1.2,4.5-3.1h0c0-2.4-3.1-3.1-6.5-4.2-4.3-1.2-9.1-3-9.1-8.5h0c0-5.6,4.6-9,10.3-9s7.6,1.3,10.7,3.3l-2.6,4.7c-2.8-1.7-5.8-2.8-8.2-2.8s-4.1,1.2-4.1,2.9h0c0,2.2,3.1,3.1,6.5,4.2,4.2,1.3,9,3.2,9,8.5h0c0,6.2-4.7,9.2-10.8,9.2s-8.7-1.5-12.3-4.3h0Z"/>
    <path class="st1" d="M694.7,70.4l3-4.5c3.2,2.4,6.5,3.6,9.5,3.6s4.5-1.2,4.5-3.1h0c0-2.4-3.1-3.1-6.5-4.2-4.3-1.2-9.1-3-9.1-8.5h0c0-5.6,4.6-9,10.3-9s7.6,1.3,10.7,3.3l-2.6,4.7c-2.8-1.7-5.8-2.8-8.2-2.8s-4.1,1.2-4.1,2.9h0c0,2.2,3.1,3.1,6.5,4.2,4.2,1.3,9,3.2,9,8.5h0c0,6.2-4.7,9.2-10.8,9.2s-8.7-1.5-12.3-4.3h0Z"/>
    <path class="st1" d="M723.5,34.4h7.2v6.3h-7.2v-6.3ZM723.8,45.2h6.7v29h-6.7v-29Z"/>
    <path class="st1" d="M736.3,59.8h0c0-8.4,6.6-15.3,15.5-15.3s15.5,6.8,15.5,15.1h0c0,8.4-6.6,15.2-15.6,15.2s-15.4-6.8-15.4-15ZM760.6,59.8h0c0-5.2-3.7-9.5-8.9-9.5s-8.7,4.2-8.7,9.2h0c0,5.2,3.7,9.4,8.8,9.4s8.8-4.2,8.8-9.2Z"/>
    <path class="st1" d="M773,45.2h6.7v4.5c1.9-2.7,4.6-5.1,9.1-5.1,6.5,0,10.3,4.4,10.3,11.1v18.5h-6.7v-16.5c0-4.5-2.2-7.1-6.2-7.1s-6.5,2.7-6.5,7.2v16.4h-6.7v-29h0Z"/>
    <path class="st1" d="M845.2,41.1c0,.8-.2,1.4-.7,2-.5.5-1,.8-1.7.8s-1.2-.2-1.5-.7c-.3-.5-.6-1.3-1-2.4-.1-.4-.3-.7-.5-1-.2-.2-.5-.3-.8-.3s-.7.2-1,.6c-.2.4-.4.9-.6,1.5l-2.9,10.6h4.1l-.7,2.5h-4.1l-4.2,15.3c-1.1,4-2.1,7.1-3,9.4-.9,2.3-2.2,4.2-3.8,5.9-1.6,1.6-3.7,2.5-6.2,2.5s-3.2-.4-4.2-1.3c-1-.9-1.5-1.8-1.5-2.9s.3-1.5.8-2.2c.5-.6,1.2-.9,2-.9s1.6.3,1.9.9c.3.6.5,1.3.6,2.3,0,1.2.6,1.8,1.4,1.8s1.5-.5,2-1.5c.5-1,1.1-2.6,1.6-4.7l6.7-24.5h-4.2l.7-2.5h4.2l.5-1.7c.6-2.4,1.3-4.6,2.1-6.4s1.9-3.4,3.4-4.8c1.5-1.4,3.4-2.1,5.6-2.1s1.6.2,2.4.5,1.4.8,1.8,1.4.7,1.3.7,2.1h0Z"/>
    <path class="st1" d="M860,60.9c0,1.8-.3,3.5-1,5.2-.6,1.7-1.6,3.2-2.8,4.6-1.2,1.3-2.6,2.4-4.2,3.2-1.6.8-3.4,1.1-5.3,1.1s-3.5-.4-5-1.2c-1.4-.8-2.5-2-3.3-3.4-.8-1.5-1.2-3.2-1.2-5s.6-4.7,1.8-6.8,2.8-3.9,4.9-5.1,4.3-1.9,6.7-1.9,3.7.4,5.1,1.3,2.5,2,3.2,3.5,1.1,3,1.1,4.7h0ZM854.3,59c0-1.7-.3-3-1-3.9-.6-1-1.6-1.4-2.8-1.4s-2.3.5-3.2,1.5-1.7,2.3-2.4,3.8c-.6,1.5-1.1,3-1.4,4.6-.3,1.5-.5,2.9-.5,4s.3,2.8.9,3.8c.6,1,1.5,1.5,2.7,1.5s2.4-.5,3.4-1.5c1-1,1.8-2.2,2.4-3.8s1.1-3.1,1.4-4.6c.3-1.6.5-2.8.5-3.9h0Z"/>
    <path class="st1" d="M884.6,54.9c0,1.1-.3,2.1-.8,3-.6.9-1.3,1.3-2.1,1.3s-1.4-.5-2.1-1.4c-.4-.5-.8-.8-1.1-.8s-1,.5-1.8,1.4c-.8.9-1.5,2.1-2.3,3.6-.8,1.5-1.6,3.2-2.4,5.2s-1.4,3.9-2,6l-.3,1.1h-5.7l3.8-15.1c.4-1.5.6-2.5.6-3s0-.4-.2-.6-.3-.3-.5-.3c-.6,0-1.3.5-1.9,1.5-.7,1-1.1,1.9-1.5,2.7h-2.2c.9-2.1,1.9-3.7,2.9-4.8s1.9-1.9,2.8-2.4c.9-.5,1.7-.7,2.5-.7,1.3,0,2.1.5,2.5,1.3.4.9.6,1.8.6,2.6,0,1.6-.5,4-1.3,7.4.9-1.8,1.7-3.2,2.3-4.2s1.3-2.2,2.1-3.3c.8-1.1,1.7-2,2.6-2.8.9-.7,1.8-1.1,2.7-1.1,1.2,0,2.1.4,2.5,1.2s.6,1.6.6,2.3h0Z"/>
    <path class="st1" d="M479.9,89.7h17.3c4.4,0,7.9,1.2,10.1,3.4,1.7,1.7,2.6,3.8,2.6,6.4h0c0,4.7-2.6,7.2-5.5,8.7,4.5,1.5,7.6,4.1,7.6,9.3h0c0,7-5.7,10.7-14.2,10.7h-17.8v-38.5h0ZM503,100.6c0-3-2.4-4.9-6.8-4.9h-9.7v10.2h9.2c4.3,0,7.3-1.7,7.3-5.2h0c0-.1,0-.1,0-.1ZM497.3,111.6h-10.7v10.6h11.2c4.6,0,7.4-1.8,7.4-5.3h0c0-3.3-2.6-5.3-7.9-5.3Z"/>
    <path class="st1" d="M515.5,113.8h0c0-8.4,5.9-15.2,14.2-15.2s13.9,7.3,13.9,15.6,0,1.2-.1,1.9h-21.3c.7,4.7,4.1,7.4,8.4,7.4s5.5-1.2,7.9-3.5l3.9,3.5c-2.8,3.3-6.5,5.4-11.9,5.4-8.4,0-14.9-6.1-14.9-15.1h0ZM537,111.6c-.4-4.3-3-7.6-7.4-7.6s-6.9,3.1-7.5,7.6h14.9Z"/>
    <path class="st1" d="M548.7,88.1h6.7v15.6c1.9-2.7,4.6-5.1,9.1-5.1,6.5,0,10.3,4.4,10.3,11.1v18.5h-6.7v-16.5c0-4.5-2.2-7.1-6.2-7.1s-6.5,2.7-6.5,7.2v16.4h-6.7v-40.1h0Z"/>
    <path class="st1" d="M580,119.8h0c0-6.4,4.9-9.5,12-9.5s5.5.5,7.8,1.2v-.7c0-4.1-2.5-6.3-7.2-6.3s-5.7.7-8.3,1.8l-1.8-5.2c3.2-1.4,6.3-2.4,10.9-2.4s7.6,1.2,9.6,3.2c2.1,2.1,3.1,5.2,3.1,9v17.2h-6.5v-3.6c-2,2.4-5,4.2-9.5,4.2s-10.3-3.1-10.3-9h0ZM599.9,117.7v-2c-1.7-.7-4-1.2-6.6-1.2-4.3,0-6.8,1.8-6.8,4.8h0c0,2.9,2.5,4.5,5.7,4.5s7.8-2.5,7.8-6.2h0Z"/>
    <path class="st1" d="M609,99.2h7.2l7.8,21.3,7.9-21.3h7l-11.9,29.3h-6l-11.9-29.3Z"/>
    <path class="st1" d="M643,88.4h7.2v6.3h-7.2v-6.3ZM643.3,99.2h6.7v29h-6.7v-29Z"/>
    <path class="st1" d="M654.7,113.8h0c0-8.4,6.6-15.3,15.5-15.3s15.5,6.8,15.5,15.1h0c0,8.4-6.6,15.2-15.6,15.2s-15.4-6.8-15.4-15ZM679,113.8h0c0-5.2-3.7-9.5-8.9-9.5s-8.7,4.2-8.7,9.2h0c0,5.2,3.7,9.4,8.8,9.4s8.8-4.2,8.8-9.2Z"/>
    <path class="st1" d="M691.2,99.2h6.7v6.5c1.8-4.3,5.2-7.3,10.3-7.1v7h-.4c-5.8,0-9.9,3.8-9.9,11.5v11.1h-6.7v-29h0Z"/>
    <path class="st1" d="M710.2,119.8h0c0-6.4,4.9-9.5,12-9.5s5.5.5,7.8,1.2v-.7c0-4.1-2.5-6.3-7.2-6.3s-5.7.7-8.3,1.8l-1.8-5.2c3.2-1.4,6.3-2.4,10.9-2.4s7.6,1.2,9.6,3.2c2.1,2.1,3.1,5.2,3.1,9v17.2h-6.5v-3.6c-2,2.4-5,4.2-9.5,4.2s-10.3-3.1-10.3-9h0ZM730.1,117.7v-2c-1.7-.7-4-1.2-6.6-1.2-4.3,0-6.8,1.8-6.8,4.8h0c0,2.9,2.5,4.5,5.7,4.5s7.8-2.5,7.8-6.2h0Z"/>
    <path class="st1" d="M742.7,88.1h6.7v40.1h-6.7v-40.1Z"/>
    <path class="st1" d="M774.8,89.7h6.8v16h18.4v-16h6.8v38.5h-6.8v-16.2h-18.4v16.2h-6.8v-38.5Z"/>
    <path class="st1" d="M812.4,113.8h0c0-8.4,5.9-15.2,14.2-15.2s13.9,7.3,13.9,15.6,0,1.2-.1,1.9h-21.3c.7,4.7,4.1,7.4,8.4,7.4s5.5-1.2,7.9-3.5l3.9,3.5c-2.8,3.3-6.5,5.4-11.9,5.4-8.4,0-14.9-6.1-14.9-15.1h0ZM833.9,111.6c-.4-4.3-3-7.6-7.4-7.6s-6.9,3.1-7.5,7.6h14.9Z"/>
    <path class="st1" d="M844.2,119.8h0c0-6.4,4.9-9.5,12-9.5s5.5.5,7.8,1.2v-.7c0-4.1-2.5-6.3-7.2-6.3s-5.7.7-8.3,1.8l-1.8-5.2c3.2-1.4,6.3-2.4,10.9-2.4s7.6,1.2,9.6,3.2c2.1,2.1,3.1,5.2,3.1,9v17.2h-6.5v-3.6c-2,2.4-5,4.2-9.5,4.2s-10.3-3.1-10.3-9h0ZM864.1,117.7v-2c-1.7-.7-4-1.2-6.6-1.2-4.3,0-6.8,1.8-6.8,4.8h0c0,2.9,2.5,4.5,5.7,4.5s7.8-2.5,7.8-6.2h0Z"/>
    <path class="st1" d="M877.8,88.1h6.7v40.1h-6.7v-40.1Z"/>
    <path class="st1" d="M893.4,120.2v-15.3h-3.7v-5.7h3.7v-8h6.7v8h7.8v5.7h-7.8v14.2c0,2.6,1.3,3.6,3.6,3.6s2.8-.3,4.1-1v5.4c-1.7.9-3.5,1.5-6,1.5-4.9,0-8.4-2.1-8.4-8.5h0Z"/>
    <path class="st1" d="M913.6,88.1h6.7v15.6c1.9-2.7,4.6-5.1,9.1-5.1,6.5,0,10.3,4.4,10.3,11.1v18.5h-6.7v-16.5c0-4.5-2.2-7.1-6.2-7.1s-6.5,2.7-6.5,7.2v16.4h-6.7v-40.1h0Z"/>
  </g>
  <g>
    <g>
      <path class="st3" d="M275.6,68.1c-14.3-.1-29.1-.2-44.3-.2s-34.4,0-50.5.3v60.1h60c28.4,0,47.2-11.5,47.2-34.6v-.4c0-12-4.5-19.7-12.3-25.2ZM260.4,90.2c0,9.4-7.4,13.7-19.6,13.7h-32.9v-27.7h32c14.2,0,20.5,5.2,20.5,13.7,0,0,0,.4,0,.4Z"/>
      <path class="st3" d="M304,68.4v59.8h27.7v-50.6h51.1v50.6h27.7v-56.9c-27.3-1-64-2.2-106.6-2.8h0Z"/>
    </g>
    <g>
      <path class="st2" d="M272.2,13.3c-7.2-7.2-18.5-11.2-32.9-11.2h-58.5v44.4c8.7-.2,17.7-.4,27-.5v-19.6h27.4c11.7,0,18.2,4.7,18.2,13v.4c0,2.5-.5,4.6-1.6,6.3,9.3,0,18.4.2,27.1.4,1.3-3.3,2-7,2-11.4v-.4c0-8.6-2.9-15.7-8.6-21.4h0Z"/>
      <path class="st2" d="M382.9,2.2v49.7c10.2.8,19.4,1.7,27.7,2.6V2.2h-27.7ZM304,47.3c9.7.3,18.9.8,27.7,1.2V2.2h-27.7v45.1Z"/>
    </g>
    <path class="st0" d="M231.3,52c151.6,0,232.6,15.7,232.6,15.7,0,0-99-5.8-232.6-5.8S5.3,67.4,0,67.7c4.8-.9,84.4-15.7,231.3-15.7"/>
    <path class="st3" d="M115,104.8c-19.8,0-34-15.2-36.2-34.5-10.6.3-20.4.7-29.1,1,2.8,33.4,29.3,59,64.4,59s38.7-8.6,51.7-22.5l-17.6-17.8c-9.9,9-18.7,14.8-33.1,14.8Z"/>
    <path class="st0" d="M80.4,51.9l-17.9-10.7,19.7,6c.4-.9.8-1.8,1.3-2.7l-15.1-13.8,17.6,9.6c.6-.9,1.3-1.7,2-2.5l-11.7-16.1,15,12.7c.8-.8,1.7-1.5,2.6-2.1l-8.1-17.8,12,15.3c1-.6,2-1.1,3.1-1.5l-4.3-18.9,8.7,17.3c1.1-.3,2.2-.5,3.3-.7l-.4-19.4,5,18.9c.5,0,1.1,0,1.6,0s1.1,0,1.7,0l3.6-19.4,1.1,19.9c1.1.2,2.1.4,3.1.6l7.6-18.5-2.9,19.9c1,.4,1.9.8,2.9,1.2l11.3-16.8-7,19.1c.9.5,1.7,1.1,2.6,1.6l14.5-14.3-10.6,17.1c1.5,1.2,2.9,2.4,4.4,3.7l17.6-20.4C153.2,7.9,139,0,115.2,0c-34.9,0-60.2,23.8-64.9,54.7,8.9-1,19-1.9,30.1-2.9h0Z"/>
  </g>
</svg>